# Blender 3.6.4
# www.blender.org
mtllib wheelsFront.mtl
o Cylinder.009
v -1.188019 -1.000000 0.668217
v -2.037941 -1.000000 0.806267
v -1.188019 -1.274121 0.730783
v -2.037942 -1.214223 0.855162
v -1.188019 -1.493948 0.906089
v -2.037942 -1.386016 0.992162
v -1.188019 -1.615943 1.159415
v -2.037942 -1.481354 1.190134
v -1.188019 -1.615943 1.440585
v -2.037942 -1.481354 1.409866
v -1.188019 -1.493948 1.693910
v -2.037942 -1.386016 1.607837
v -1.188019 -1.274121 1.869217
v -2.037942 -1.214223 1.744838
v -1.188019 -1.000000 1.931783
v -2.037941 -1.000000 1.793733
v -1.188019 -0.725879 1.869217
v -2.037941 -0.785777 1.744838
v -1.188019 -0.506052 1.693910
v -2.037941 -0.613984 1.607837
v -1.188019 -0.384057 1.440585
v -2.037941 -0.518646 1.409866
v -1.188019 -0.384057 1.159415
v -2.037941 -0.518646 1.190134
v -1.188019 -0.506052 0.906089
v -2.037941 -0.613984 0.992162
v -1.188019 -0.725879 0.730783
v -2.037941 -0.785777 0.855162
v -2.037942 -1.274121 0.730783
v -2.037941 -1.000000 0.668217
v -2.037942 -1.493948 0.906089
v -2.037942 -1.615943 1.159415
v -2.037942 -1.615943 1.440585
v -2.037942 -1.493948 1.693910
v -2.037942 -1.274121 1.869217
v -2.037941 -1.000000 1.931783
v -2.037941 -0.725879 1.869217
v -2.037941 -0.506052 1.693910
v -2.037941 -0.384057 1.440585
v -2.037941 -0.384057 1.159415
v -2.037941 -0.506052 0.906089
v -2.037941 -0.725879 0.730783
v -1.803060 -1.055152 1.185475
v -1.803060 -1.000000 1.172887
v -1.803060 -1.099381 1.220746
v -1.803060 -1.123926 1.271715
v -1.803060 -1.123926 1.328285
v -1.803060 -1.099381 1.379254
v -1.803060 -1.055152 1.414525
v -1.803060 -1.000000 1.427113
v -1.803060 -0.944848 1.414525
v -1.803060 -0.900619 1.379254
v -1.803060 -0.876074 1.328285
v -1.803060 -0.876074 1.271715
v -1.803060 -0.900619 1.220746
v -1.803060 -0.944848 1.185475
v -1.803060 -1.214223 0.855162
v -1.803060 -1.000000 0.806267
v -1.803060 -1.386016 0.992162
v -1.803060 -1.481354 1.190134
v -1.803060 -1.481354 1.409866
v -1.803060 -1.386016 1.607837
v -1.803060 -1.214223 1.744838
v -1.803060 -1.000000 1.793733
v -1.803060 -0.785777 1.744838
v -1.803060 -0.613984 1.607837
v -1.803060 -0.518646 1.409866
v -1.803060 -0.518646 1.190134
v -1.803060 -0.613984 0.992162
v -1.803060 -0.785777 0.855162
v -1.940568 -1.055152 1.185475
v -1.940568 -1.000000 1.172887
v -1.940568 -1.099381 1.220746
v -1.940568 -1.123926 1.271715
v -1.940568 -1.123926 1.328285
v -1.940568 -1.099381 1.379254
v -1.940568 -1.055152 1.414525
v -1.940568 -1.000000 1.427113
v -1.940568 -0.944848 1.414525
v -1.940568 -0.900619 1.379254
v -1.940568 -0.876074 1.328285
v -1.940568 -0.876074 1.271715
v -1.940568 -0.900619 1.220746
v -1.940568 -0.944848 1.185475
v -1.724080 -1.214223 0.855162
v -1.724080 -1.000000 0.806267
v -1.724080 -1.481354 1.190134
v -1.724080 -1.386016 0.992162
v -1.724080 -1.386016 1.607837
v -1.724080 -1.481354 1.409866
v -1.724080 -1.000000 1.793733
v -1.724080 -1.214223 1.744838
v -1.724080 -0.613984 1.607837
v -1.724080 -0.785777 1.744838
v -1.724080 -0.518646 1.190134
v -1.724080 -0.518646 1.409866
v -1.724080 -0.785777 0.855162
v -1.724080 -0.613984 0.992162
v -1.724080 -1.055152 1.185475
v -1.724080 -1.000000 1.172887
v -1.724080 -1.123926 1.271715
v -1.724080 -1.099381 1.220746
v -1.724080 -1.099381 1.379254
v -1.724080 -1.123926 1.328285
v -1.724080 -1.000000 1.427113
v -1.724080 -1.055152 1.414525
v -1.724080 -0.900619 1.379254
v -1.724080 -0.944848 1.414525
v -1.724080 -0.876074 1.271715
v -1.724080 -0.876074 1.328285
v -1.724080 -0.944848 1.185475
v -1.724080 -0.900619 1.220746
vn -0.0000 -0.2225 -0.9749
vn -0.0000 -0.6235 -0.7818
vn -0.0000 -0.9010 -0.4339
vn -0.0000 -1.0000 -0.0000
vn -0.0000 -0.9010 0.4339
vn -0.0000 -0.6235 0.7818
vn -0.0000 -0.2225 0.9749
vn -0.0000 0.2225 0.9749
vn -0.0000 0.6235 0.7818
vn -0.0000 0.9010 0.4339
vn -0.0000 1.0000 -0.0000
vn -0.0000 0.9010 -0.4339
vn -0.0000 0.6235 -0.7818
vn -0.0000 0.2225 -0.9749
vn 1.0000 -0.0000 -0.0000
vn -1.0000 -0.0000 -0.0000
vt 1.000000 0.500000
vt 0.928571 0.500000
vt 0.928571 1.000000
vt 1.000000 1.000000
vt 0.857143 0.500000
vt 0.857143 1.000000
vt 0.785714 0.500000
vt 0.785714 1.000000
vt 0.714286 0.500000
vt 0.714286 1.000000
vt 0.642857 0.500000
vt 0.642857 1.000000
vt 0.571428 0.500000
vt 0.571428 1.000000
vt 0.500000 0.500000
vt 0.500000 1.000000
vt 0.428571 0.500000
vt 0.428571 1.000000
vt 0.357143 0.500000
vt 0.357143 1.000000
vt 0.285714 0.500000
vt 0.285714 1.000000
vt 0.214286 0.500000
vt 0.214286 1.000000
vt 0.142857 0.500000
vt 0.142857 1.000000
vt 0.103361 0.133060
vt 0.168622 0.081016
vt 0.071428 0.500000
vt 0.071428 1.000000
vt -0.000000 0.500000
vt -0.000000 1.000000
vt 0.750000 0.490000
vt 0.645868 0.466233
vt 0.562360 0.399638
vt 0.516017 0.303405
vt 0.516017 0.196595
vt 0.562360 0.100362
vt 0.645868 0.033767
vt 0.750000 0.010000
vt 0.854132 0.033767
vt 0.937640 0.100362
vt 0.983983 0.196595
vt 0.983983 0.303405
vt 0.937640 0.399638
vt 0.854132 0.466233
vt 0.250000 0.437558
vt 0.250000 0.490000
vt 0.354132 0.466233
vt 0.331378 0.418984
vt 0.437640 0.399638
vt 0.396639 0.366940
vt 0.483983 0.303405
vt 0.432855 0.291736
vt 0.483983 0.196595
vt 0.432855 0.208264
vt 0.437640 0.100362
vt 0.396639 0.133060
vt 0.354132 0.033767
vt 0.331378 0.081016
vt 0.250000 0.010000
vt 0.250000 0.062442
vt 0.145868 0.033767
vt 0.062360 0.100362
vt 0.016017 0.196595
vt 0.067145 0.208264
vt 0.016017 0.303405
vt 0.067145 0.291736
vt 0.062360 0.399638
vt 0.103361 0.366940
vt 0.145868 0.466233
vt 0.168622 0.418984
vt 0.212247 0.219893
vt 0.229049 0.206495
vt 0.270951 0.293505
vt 0.287753 0.280107
vt 0.297077 0.239255
vt 0.297077 0.260745
vt 0.287753 0.219893
vt 0.270951 0.206495
vt 0.250000 0.201713
vt 0.202923 0.239255
vt 0.202923 0.260745
vt 0.212247 0.280107
vt 0.229049 0.293505
vt 0.250000 0.298287
s 0
usemtl Lines
f 1/1/1 3/2/1 29/3/1 30/4/1
f 3/2/2 5/5/2 31/6/2 29/3/2
f 5/5/3 7/7/3 32/8/3 31/6/3
f 7/7/4 9/9/4 33/10/4 32/8/4
f 9/9/5 11/11/5 34/12/5 33/10/5
f 11/11/6 13/13/6 35/14/6 34/12/6
f 13/13/7 15/15/7 36/16/7 35/14/7
f 15/15/8 17/17/8 37/18/8 36/16/8
f 17/17/9 19/19/9 38/20/9 37/18/9
f 19/19/10 21/21/10 39/22/10 38/20/10
f 21/21/11 23/23/11 40/24/11 39/22/11
f 23/23/12 25/25/12 41/26/12 40/24/12
f 20/27/2 66/27/2 65/28/2 18/28/2
f 25/25/13 27/29/13 42/30/13 41/26/13
f 27/29/14 1/31/14 30/32/14 42/30/14
f 1/33/15 27/34/15 25/35/15 23/36/15 21/37/15 19/38/15 17/39/15 15/40/15 13/41/15 11/42/15 9/43/15 7/44/15 5/45/15 3/46/15
f 2/47/16 30/48/16 29/49/16 4/50/16
f 4/50/16 29/49/16 31/51/16 6/52/16
f 6/52/16 31/51/16 32/53/16 8/54/16
f 8/54/16 32/53/16 33/55/16 10/56/16
f 10/56/16 33/55/16 34/57/16 12/58/16
f 12/58/16 34/57/16 35/59/16 14/60/16
f 14/60/16 35/59/16 36/61/16 16/62/16
f 16/62/16 36/61/16 37/63/16 18/28/16
f 18/28/16 37/63/16 38/64/16 20/27/16
f 20/27/16 38/64/16 39/65/16 22/66/16
f 22/66/16 39/65/16 40/67/16 24/68/16
f 24/68/16 40/67/16 41/69/16 26/70/16
f 26/70/16 41/69/16 42/71/16 28/72/16
f 28/72/16 42/71/16 30/48/16 2/47/16
f 6/52/9 59/52/9 57/50/9 4/50/9
f 22/66/3 67/66/3 66/27/3 20/27/3
f 8/54/10 60/54/10 59/52/10 6/52/10
f 24/68/4 68/68/4 67/66/4 22/66/4
f 10/56/11 61/56/11 60/54/11 8/54/11
f 26/70/5 69/70/5 68/68/5 24/68/5
f 12/58/12 62/58/12 61/56/12 10/56/12
f 28/72/6 70/72/6 69/70/6 26/70/6
f 14/60/13 63/60/13 62/58/13 12/58/13
f 2/47/7 58/47/7 70/72/7 28/72/7
f 16/62/14 64/62/14 63/60/14 14/60/14
f 18/28/1 65/28/1 64/62/1 16/62/1
f 4/50/8 57/50/8 58/47/8 2/47/8
f 64/62/14 91/62/14 92/60/14 63/60/14
f 62/58/12 89/58/12 90/56/12 61/56/12
f 100/86/16 86/47/16 85/50/16 99/75/16
f 102/76/16 88/52/16 87/54/16 101/78/16
f 104/77/16 90/56/16 89/58/16 103/79/16
f 106/80/16 92/60/16 91/62/16 105/81/16
f 108/74/16 94/28/16 93/27/16 107/73/16
f 110/82/16 96/66/16 95/68/16 109/83/16
f 112/84/16 98/70/16 97/72/16 111/85/16
f 66/27/2 93/27/2 94/28/2 65/28/2
f 68/68/4 95/68/4 96/66/4 67/66/4
f 70/72/6 97/72/6 98/70/6 69/70/6
f 57/50/8 85/50/8 86/47/8 58/47/8
f 60/54/10 87/54/10 88/52/10 59/52/10
usemtl Chrome
f 43/75/16 57/50/16 59/52/16 45/76/16
f 61/56/8 90/56/8 104/77/8 47/77/8
f 46/78/16 60/54/16 61/56/16 47/77/16
f 47/77/5 104/77/5 103/79/5 48/79/5
f 48/79/16 62/58/16 63/60/16 49/80/16
f 46/78/14 101/78/14 87/54/14 60/54/14
f 50/81/16 64/62/16 65/28/16 51/74/16
f 52/73/16 66/27/16 67/66/16 53/82/16
f 59/52/6 88/52/6 102/76/6 45/76/6
f 54/83/16 68/68/16 69/70/16 55/84/16
f 45/76/3 102/76/3 101/78/3 46/78/3
f 56/85/16 70/72/16 58/47/16 44/86/16
f 48/79/2 103/79/2 89/58/2 62/58/2
f 49/80/7 106/80/7 105/81/7 50/81/7
f 63/60/10 92/60/10 106/80/10 49/80/10
f 50/81/4 105/81/4 91/62/4 64/62/4
f 51/74/9 108/74/9 107/73/9 52/73/9
f 65/28/12 94/28/12 108/74/12 51/74/12
f 52/73/6 107/73/6 93/27/6 66/27/6
f 53/82/11 110/82/11 109/83/11 54/83/11
f 67/66/14 96/66/14 110/82/14 53/82/14
f 54/83/8 109/83/8 95/68/8 68/68/8
f 55/84/13 112/84/13 111/85/13 56/85/13
f 69/70/2 98/70/2 112/84/2 55/84/2
f 44/86/1 100/86/1 99/75/1 43/75/1
f 56/85/10 111/85/10 97/72/10 70/72/10
f 58/47/4 86/47/4 100/86/4 44/86/4
f 43/75/12 99/75/12 85/50/12 57/50/12
usemtl Indents
f 52/73/9 80/73/9 79/74/9 51/74/9
f 71/75/16 73/76/16 74/78/16 75/77/16 76/79/16 77/80/16 78/81/16 79/74/16 80/73/16 81/82/16 82/83/16 83/84/16 84/85/16 72/86/16
f 45/76/2 73/76/2 71/75/2 43/75/2
f 53/82/10 81/82/10 80/73/10 52/73/10
f 46/78/3 74/78/3 73/76/3 45/76/3
f 54/83/11 82/83/11 81/82/11 53/82/11
f 47/77/4 75/77/4 74/78/4 46/78/4
f 55/84/12 83/84/12 82/83/12 54/83/12
f 48/79/5 76/79/5 75/77/5 47/77/5
f 56/85/13 84/85/13 83/84/13 55/84/13
f 49/80/6 77/80/6 76/79/6 48/79/6
f 44/86/14 72/86/14 84/85/14 56/85/14
f 50/81/7 78/81/7 77/80/7 49/80/7
f 51/74/8 79/74/8 78/81/8 50/81/8
f 43/75/1 71/75/1 72/86/1 44/86/1
o Cylinder.010
v 1.075039 -1.000000 0.668216
v 1.924961 -1.000000 0.806267
v 1.075039 -1.274121 0.730783
v 1.924961 -1.214223 0.855162
v 1.075039 -1.493948 0.906089
v 1.924961 -1.386016 0.992162
v 1.075039 -1.615943 1.159415
v 1.924961 -1.481354 1.190134
v 1.075039 -1.615943 1.440585
v 1.924961 -1.481354 1.409866
v 1.075039 -1.493948 1.693911
v 1.924961 -1.386016 1.607838
v 1.075039 -1.274121 1.869217
v 1.924961 -1.214223 1.744838
v 1.075039 -1.000000 1.931783
v 1.924961 -1.000000 1.793733
v 1.075039 -0.725879 1.869217
v 1.924961 -0.785777 1.744838
v 1.075039 -0.506052 1.693911
v 1.924961 -0.613984 1.607837
v 1.075039 -0.384057 1.440585
v 1.924961 -0.518646 1.409866
v 1.075039 -0.384057 1.159415
v 1.924961 -0.518646 1.190134
v 1.075039 -0.506052 0.906089
v 1.924961 -0.613984 0.992162
v 1.075039 -0.725879 0.730783
v 1.924961 -0.785777 0.855162
v 1.924961 -1.274121 0.730783
v 1.924961 -1.000000 0.668216
v 1.924961 -1.493948 0.906089
v 1.924961 -1.615943 1.159415
v 1.924961 -1.615943 1.440585
v 1.924961 -1.493948 1.693911
v 1.924961 -1.274121 1.869217
v 1.924961 -1.000000 1.931783
v 1.924961 -0.725879 1.869217
v 1.924961 -0.506052 1.693911
v 1.924961 -0.384057 1.440585
v 1.924961 -0.384057 1.159415
v 1.924961 -0.506052 0.906089
v 1.924961 -0.725879 0.730783
v 1.690080 -1.055152 1.185475
v 1.690080 -1.000000 1.172887
v 1.690080 -1.099381 1.220746
v 1.690080 -1.123926 1.271715
v 1.690080 -1.123926 1.328285
v 1.690080 -1.099381 1.379254
v 1.690080 -1.055152 1.414525
v 1.690080 -1.000000 1.427113
v 1.690080 -0.944848 1.414525
v 1.690080 -0.900619 1.379254
v 1.690080 -0.876074 1.328285
v 1.690080 -0.876074 1.271715
v 1.690080 -0.900619 1.220746
v 1.690080 -0.944848 1.185475
v 1.690080 -1.214223 0.855162
v 1.690080 -1.000000 0.806267
v 1.690080 -1.386016 0.992162
v 1.690080 -1.481354 1.190134
v 1.690080 -1.481354 1.409866
v 1.690080 -1.386016 1.607838
v 1.690080 -1.214223 1.744838
v 1.690080 -1.000000 1.793733
v 1.690080 -0.785777 1.744838
v 1.690080 -0.613984 1.607837
v 1.690080 -0.518646 1.409866
v 1.690080 -0.518646 1.190134
v 1.690080 -0.613984 0.992162
v 1.690080 -0.785777 0.855162
v 1.827588 -1.055152 1.185475
v 1.827588 -1.000000 1.172887
v 1.827588 -1.099381 1.220746
v 1.827588 -1.123926 1.271715
v 1.827588 -1.123926 1.328285
v 1.827588 -1.099381 1.379254
v 1.827588 -1.055152 1.414525
v 1.827588 -1.000000 1.427113
v 1.827588 -0.944848 1.414525
v 1.827588 -0.900619 1.379254
v 1.827588 -0.876074 1.328285
v 1.827588 -0.876074 1.271715
v 1.827588 -0.900619 1.220746
v 1.827588 -0.944848 1.185475
v 1.611100 -1.214223 0.855162
v 1.611100 -1.000000 0.806267
v 1.611100 -1.481354 1.190134
v 1.611100 -1.386016 0.992162
v 1.611100 -1.386016 1.607838
v 1.611100 -1.481354 1.409866
v 1.611100 -1.000000 1.793733
v 1.611100 -1.214223 1.744838
v 1.611100 -0.613984 1.607837
v 1.611100 -0.785777 1.744838
v 1.611100 -0.518646 1.190134
v 1.611100 -0.518646 1.409866
v 1.611100 -0.785777 0.855162
v 1.611100 -0.613984 0.992162
v 1.611100 -1.055152 1.185475
v 1.611100 -1.000000 1.172887
v 1.611100 -1.123926 1.271715
v 1.611100 -1.099381 1.220746
v 1.611100 -1.099381 1.379254
v 1.611100 -1.123926 1.328285
v 1.611100 -1.000000 1.427113
v 1.611100 -1.055152 1.414525
v 1.611100 -0.900619 1.379254
v 1.611100 -0.944848 1.414525
v 1.611100 -0.876074 1.271715
v 1.611100 -0.876074 1.328285
v 1.611100 -0.944848 1.185475
v 1.611100 -0.900619 1.220746
vn -0.0000 -0.2225 -0.9749
vn -0.0000 -0.6235 -0.7818
vn -0.0000 -0.9010 -0.4339
vn -0.0000 -1.0000 -0.0000
vn -0.0000 -0.9010 0.4339
vn -0.0000 -0.6235 0.7818
vn -0.0000 -0.2225 0.9749
vn -0.0000 0.2225 0.9749
vn -0.0000 0.6235 0.7818
vn -0.0000 0.9010 0.4339
vn -0.0000 1.0000 -0.0000
vn -0.0000 0.9010 -0.4339
vn -0.0000 0.6235 -0.7818
vn -0.0000 0.2225 -0.9749
vn -1.0000 -0.0000 -0.0000
vn 1.0000 -0.0000 -0.0000
vt 1.000000 0.500000
vt 1.000000 1.000000
vt 0.928571 1.000000
vt 0.928571 0.500000
vt 0.857143 1.000000
vt 0.857143 0.500000
vt 0.785714 1.000000
vt 0.785714 0.500000
vt 0.714286 1.000000
vt 0.714286 0.500000
vt 0.642857 1.000000
vt 0.642857 0.500000
vt 0.571428 1.000000
vt 0.571428 0.500000
vt 0.500000 1.000000
vt 0.500000 0.500000
vt 0.428571 1.000000
vt 0.428571 0.500000
vt 0.357143 1.000000
vt 0.357143 0.500000
vt 0.285714 1.000000
vt 0.285714 0.500000
vt 0.214286 1.000000
vt 0.214286 0.500000
vt 0.142857 1.000000
vt 0.142857 0.500000
vt 0.103361 0.133060
vt 0.168622 0.081016
vt 0.071428 1.000000
vt 0.071428 0.500000
vt -0.000000 1.000000
vt -0.000000 0.500000
vt 0.750000 0.490000
vt 0.854132 0.466233
vt 0.937640 0.399638
vt 0.983983 0.303405
vt 0.983983 0.196595
vt 0.937640 0.100362
vt 0.854132 0.033767
vt 0.750000 0.010000
vt 0.645868 0.033767
vt 0.562360 0.100362
vt 0.516017 0.196595
vt 0.516017 0.303405
vt 0.562360 0.399638
vt 0.645868 0.466233
vt 0.250000 0.437558
vt 0.331378 0.418984
vt 0.354132 0.466233
vt 0.250000 0.490000
vt 0.396639 0.366940
vt 0.437640 0.399638
vt 0.432855 0.291736
vt 0.483983 0.303405
vt 0.432855 0.208264
vt 0.483983 0.196595
vt 0.396639 0.133060
vt 0.437640 0.100362
vt 0.331378 0.081016
vt 0.354132 0.033767
vt 0.250000 0.062442
vt 0.250000 0.010000
vt 0.145868 0.033767
vt 0.062360 0.100362
vt 0.067145 0.208264
vt 0.016017 0.196595
vt 0.067145 0.291736
vt 0.016017 0.303405
vt 0.103361 0.366940
vt 0.062360 0.399638
vt 0.168622 0.418984
vt 0.145868 0.466233
vt 0.212247 0.219893
vt 0.229049 0.206495
vt 0.270951 0.293505
vt 0.287753 0.280107
vt 0.297077 0.239255
vt 0.297077 0.260745
vt 0.287753 0.219893
vt 0.270951 0.206495
vt 0.250000 0.201713
vt 0.202923 0.239255
vt 0.202923 0.260745
vt 0.212247 0.280107
vt 0.229049 0.293505
vt 0.250000 0.298287
s 0
usemtl Lines
f 113/87/17 142/88/17 141/89/17 115/90/17
f 115/90/18 141/89/18 143/91/18 117/92/18
f 117/92/19 143/91/19 144/93/19 119/94/19
f 119/94/20 144/93/20 145/95/20 121/96/20
f 121/96/21 145/95/21 146/97/21 123/98/21
f 123/98/22 146/97/22 147/99/22 125/100/22
f 125/100/23 147/99/23 148/101/23 127/102/23
f 127/102/24 148/101/24 149/103/24 129/104/24
f 129/104/25 149/103/25 150/105/25 131/106/25
f 131/106/26 150/105/26 151/107/26 133/108/26
f 133/108/27 151/107/27 152/109/27 135/110/27
f 135/110/28 152/109/28 153/111/28 137/112/28
f 132/113/18 130/114/18 177/114/18 178/113/18
f 137/112/29 153/111/29 154/115/29 139/116/29
f 139/116/30 154/115/30 142/117/30 113/118/30
f 113/119/31 115/120/31 117/121/31 119/122/31 121/123/31 123/124/31 125/125/31 127/126/31 129/127/31 131/128/31 133/129/31 135/130/31 137/131/31 139/132/31
f 114/133/32 116/134/32 141/135/32 142/136/32
f 116/134/32 118/137/32 143/138/32 141/135/32
f 118/137/32 120/139/32 144/140/32 143/138/32
f 120/139/32 122/141/32 145/142/32 144/140/32
f 122/141/32 124/143/32 146/144/32 145/142/32
f 124/143/32 126/145/32 147/146/32 146/144/32
f 126/145/32 128/147/32 148/148/32 147/146/32
f 128/147/32 130/114/32 149/149/32 148/148/32
f 130/114/32 132/113/32 150/150/32 149/149/32
f 132/113/32 134/151/32 151/152/32 150/150/32
f 134/151/32 136/153/32 152/154/32 151/152/32
f 136/153/32 138/155/32 153/156/32 152/154/32
f 138/155/32 140/157/32 154/158/32 153/156/32
f 140/157/32 114/133/32 142/136/32 154/158/32
f 118/137/25 116/134/25 169/134/25 171/137/25
f 134/151/19 132/113/19 178/113/19 179/151/19
f 120/139/26 118/137/26 171/137/26 172/139/26
f 136/153/20 134/151/20 179/151/20 180/153/20
f 122/141/27 120/139/27 172/139/27 173/141/27
f 138/155/21 136/153/21 180/153/21 181/155/21
f 124/143/28 122/141/28 173/141/28 174/143/28
f 140/157/22 138/155/22 181/155/22 182/157/22
f 126/145/29 124/143/29 174/143/29 175/145/29
f 114/133/23 140/157/23 182/157/23 170/133/23
f 128/147/30 126/145/30 175/145/30 176/147/30
f 130/114/17 128/147/17 176/147/17 177/114/17
f 116/134/24 114/133/24 170/133/24 169/134/24
f 176/147/30 175/145/30 204/145/30 203/147/30
f 174/143/28 173/141/28 202/141/28 201/143/28
f 212/172/32 211/161/32 197/134/32 198/133/32
f 214/162/32 213/164/32 199/139/32 200/137/32
f 216/163/32 215/165/32 201/143/32 202/141/32
f 218/166/32 217/167/32 203/147/32 204/145/32
f 220/160/32 219/159/32 205/113/32 206/114/32
f 222/168/32 221/169/32 207/153/32 208/151/32
f 224/170/32 223/171/32 209/157/32 210/155/32
f 178/113/18 177/114/18 206/114/18 205/113/18
f 180/153/20 179/151/20 208/151/20 207/153/20
f 182/157/22 181/155/22 210/155/22 209/157/22
f 169/134/24 170/133/24 198/133/24 197/134/24
f 172/139/26 171/137/26 200/137/26 199/139/26
usemtl Chrome
f 155/161/32 157/162/32 171/137/32 169/134/32
f 173/141/24 159/163/24 216/163/24 202/141/24
f 158/164/32 159/163/32 173/141/32 172/139/32
f 159/163/21 160/165/21 215/165/21 216/163/21
f 160/165/32 161/166/32 175/145/32 174/143/32
f 158/164/30 172/139/30 199/139/30 213/164/30
f 162/167/32 163/160/32 177/114/32 176/147/32
f 164/159/32 165/168/32 179/151/32 178/113/32
f 171/137/22 157/162/22 214/162/22 200/137/22
f 166/169/32 167/170/32 181/155/32 180/153/32
f 157/162/19 158/164/19 213/164/19 214/162/19
f 168/171/32 156/172/32 170/133/32 182/157/32
f 160/165/18 174/143/18 201/143/18 215/165/18
f 161/166/23 162/167/23 217/167/23 218/166/23
f 175/145/26 161/166/26 218/166/26 204/145/26
f 162/167/20 176/147/20 203/147/20 217/167/20
f 163/160/25 164/159/25 219/159/25 220/160/25
f 177/114/28 163/160/28 220/160/28 206/114/28
f 164/159/22 178/113/22 205/113/22 219/159/22
f 165/168/27 166/169/27 221/169/27 222/168/27
f 179/151/30 165/168/30 222/168/30 208/151/30
f 166/169/24 180/153/24 207/153/24 221/169/24
f 167/170/29 168/171/29 223/171/29 224/170/29
f 181/155/18 167/170/18 224/170/18 210/155/18
f 156/172/17 155/161/17 211/161/17 212/172/17
f 168/171/26 182/157/26 209/157/26 223/171/26
f 170/133/20 156/172/20 212/172/20 198/133/20
f 155/161/28 169/134/28 197/134/28 211/161/28
usemtl Indents
f 164/159/25 163/160/25 191/160/25 192/159/25
f 183/161/32 184/172/32 196/171/32 195/170/32 194/169/32 193/168/32 192/159/32 191/160/32 190/167/32 189/166/32 188/165/32 187/163/32 186/164/32 185/162/32
f 157/162/18 155/161/18 183/161/18 185/162/18
f 165/168/26 164/159/26 192/159/26 193/168/26
f 158/164/19 157/162/19 185/162/19 186/164/19
f 166/169/27 165/168/27 193/168/27 194/169/27
f 159/163/20 158/164/20 186/164/20 187/163/20
f 167/170/28 166/169/28 194/169/28 195/170/28
f 160/165/21 159/163/21 187/163/21 188/165/21
f 168/171/29 167/170/29 195/170/29 196/171/29
f 161/166/22 160/165/22 188/165/22 189/166/22
f 156/172/30 168/171/30 196/171/30 184/172/30
f 162/167/23 161/166/23 189/166/23 190/167/23
f 163/160/24 162/167/24 190/167/24 191/160/24
f 155/161/17 156/172/17 184/172/17 183/161/17
